<?xml version="1.0" standalone="no"?>
<!DOCTYPE svg PUBLIC "-//W3C//DTD SVG 20010904//EN"
 "http://www.w3.org/TR/2001/REC-SVG-20010904/DTD/svg10.dtd">
<svg version="1.0" xmlns="http://www.w3.org/2000/svg"
 width="250.000000pt" height="250.000000pt" viewBox="0 0 250.000000 250.000000"
 preserveAspectRatio="xMidYMid meet">
<metadata>
Created by potrace 1.14, written by Peter Selinger 2001-2017
</metadata>
<g transform="translate(0.000000,250.000000) scale(0.100000,-0.100000)"
fill="#000000" stroke="none">
<path d="M100 1288 l0 -568 139 0 139 0 -2 335 c0 183 2 331 6 327 3 -4 61
-154 128 -334 l123 -328 112 0 113 0 36 98 c19 53 76 205 125 337 l90 240 1
-337 0 -338 140 0 140 0 0 568 0 569 -164 0 -163 0 -153 -381 c-84 -210 -155
-384 -159 -389 -4 -4 -22 30 -41 75 -18 46 -43 106 -55 133 -12 28 -33 79 -45
115 -13 36 -26 70 -30 75 -4 6 -39 92 -79 191 l-73 182 -164 -1 -164 0 0 -569z"/>
<path d="M1589 1849 c0 -5 0 -245 0 -534 0 -289 0 -541 0 -560 l1 -35 138 0
137 0 0 196 c0 107 2 199 5 204 3 4 68 10 145 13 149 4 156 5 225 33 150 58
233 212 210 385 -19 136 -103 235 -245 285 -42 14 -93 17 -332 20 -163 1 -283
-2 -284 -7z m511 -231 c15 -6 37 -26 50 -45 19 -27 22 -42 18 -93 -7 -104 -57
-134 -213 -128 l-90 3 0 135 c0 106 2 136 13 141 25 9 194 0 222 -13z"/>
</g>
</svg>
